<svg width="1346" height="397" viewBox="0 0 1346 397" fill="none" xmlns="http://www.w3.org/2000/svg">
<g opacity="0.8">
<mask id="mask0" style="mask-type:alpha" maskUnits="userSpaceOnUse" x="0" y="0" width="1346" height="397">
<path d="M0 367C0 383.569 13.4315 397 30 397L1316 397C1332.57 397 1346 383.569 1346 367V30C1346 13.4315 1332.57 0 1316 0L30 0C13.4315 0 0 13.4315 0 30L0 367Z" fill="url(#paint0_linear)"/>
</mask>
<g mask="url(#mask0)">
<path opacity="0.2" d="M211.247 260.334V-79L-38.3235 188.653V528L211.247 260.334Z" fill="url(#paint1_linear)"/>
<path opacity="0.2" d="M1210.37 311.587L1345.35 455.985L1344.62 228.972L1209.64 84.5684L1210.37 311.587Z" fill="url(#paint2_linear)"/>
<path d="M480.594 407.089L884.454 409.895L681.213 192.46L480.594 407.089Z" fill="url(#paint3_linear)" fill-opacity="0.1"/>
<path d="M903.627 649H1422.35L655.844 -171H137.107L903.627 649Z" fill="url(#paint4_linear)" fill-opacity="0.1"/>
</g>
</g>
<mask id="mask1" style="mask-type:alpha" maskUnits="userSpaceOnUse" x="29" y="90" width="384" height="307">
<rect x="29" y="90" width="384" height="307" fill="#C4C4C4"/>
</mask>
<g mask="url(#mask1)">
<path d="M204 191H222.5C228.575 191 233.5 195.925 233.5 202V218.5" stroke="black" stroke-width="0.4"/>
<path d="M34.9052 417.514C30.5849 417.514 27 413.929 27 409.61V226.904C27 222.584 30.5849 219 34.9052 219H287.503C291.823 219 295.408 222.584 295.408 226.904V409.61C295.408 413.929 291.823 417.514 287.503 417.514H34.9052Z" fill="url(#paint5_linear)"/>
<path d="M372.094 267L351 267L351 368.956L372.094 368.956L372.094 267Z" fill="url(#paint6_linear)"/>
<path opacity="0.3" d="M74.0943 114L53 114L53 215.956L74.0943 215.956L74.0943 114Z" fill="url(#paint7_linear)"/>
<path fill-rule="evenodd" clip-rule="evenodd" d="M269.337 417.513H53.598V324.34C53.598 321.146 56.4795 318.496 59.952 318.496H262.984C266.456 318.496 269.337 321.146 269.337 324.34V417.513Z" fill="#243E81"/>
<path d="M287.411 219.09H34.9052C30.5849 219.09 27 222.674 27 226.994V237.655H295.316V226.902C295.316 222.583 291.823 219.09 287.411 219.09Z" fill="#56C8FF"/>
<path d="M122.008 274.481L112 278.945V280.697L122.008 285.161V283.625L113.296 279.833L122.008 276.017V274.481Z" fill="#2B438B"/>
<path d="M125.445 270.857V287.657H127.365V280.217H137.493V287.657H139.413V270.857H137.493V278.465H127.365V270.857H125.445Z" fill="#2B438B"/>
<path d="M142.22 270.857V272.633H147.692V287.657H149.612V272.633H155.108V270.857H142.22Z" fill="#2B438B"/>
<path d="M155.603 270.857V272.633H161.075V287.657H162.995V272.633H168.491V270.857H155.603Z" fill="#2B438B"/>
<path d="M177.577 270.857H171.265V287.657H173.185V282.329H177.577C181.729 282.329 184.129 280.193 184.129 276.497C184.129 272.921 181.729 270.857 177.577 270.857ZM177.505 280.553H173.185V272.633H177.505C180.529 272.633 182.281 273.977 182.281 276.545C182.281 279.185 180.529 280.553 177.505 280.553Z" fill="#2B438B"/>
<path d="M196.824 274.049L197.64 272.345C196.248 271.409 194.256 270.785 192.312 270.785C188.832 270.785 186.504 272.465 186.504 275.105C186.504 281.129 195.96 278.753 195.936 283.241C195.936 284.873 194.424 285.857 192 285.857C190.104 285.857 187.968 284.993 186.408 283.505L185.544 285.161C187.128 286.673 189.528 287.729 191.976 287.729C195.576 287.729 198.048 285.929 198.048 283.145C198.072 277.049 188.616 279.329 188.616 274.961C188.616 273.521 190.032 272.657 192.192 272.657C193.536 272.657 195.312 273.065 196.824 274.049Z" fill="#2B438B"/>
<path d="M200.336 285.089L210.344 280.625V278.873L200.336 274.409V275.945L209.048 279.737L200.336 283.553V285.089Z" fill="#2B438B"/>
<g opacity="0.5">
<rect x="82" y="349.384" width="36.9964" height="4.26882" rx="1" fill="white" style="mix-blend-mode:overlay"/>
<rect x="82" y="338" width="17.0753" height="4.26882" rx="1" fill="white" style="mix-blend-mode:overlay"/>
<rect x="82" y="392.071" width="36.9964" height="4.26882" rx="1" fill="white" style="mix-blend-mode:overlay"/>
<rect x="82" y="384.957" width="29.8817" height="4.26882" rx="1" fill="white" style="mix-blend-mode:overlay"/>
<rect x="82" y="370.728" width="8.53764" height="4.26882" rx="1" fill="white" style="mix-blend-mode:overlay"/>
<rect x="93.3835" y="370.728" width="25.6129" height="4.26882" rx="1" fill="white" style="mix-blend-mode:overlay"/>
<rect x="130.38" y="360.767" width="5.69176" height="4.26882" rx="1" transform="rotate(-180 130.38 360.767)" fill="white" style="mix-blend-mode:overlay"/>
<rect x="82" y="377.842" width="5.69176" height="4.26882" rx="1" fill="white" style="mix-blend-mode:overlay"/>
<rect x="121.842" y="349.384" width="18.4982" height="4.26882" rx="1" fill="white" style="mix-blend-mode:overlay"/>
<rect x="121.842" y="392.071" width="18.4982" height="4.26882" rx="1" fill="white" style="mix-blend-mode:overlay"/>
<rect x="114.728" y="384.957" width="14.2294" height="4.26882" rx="1" fill="white" style="mix-blend-mode:overlay"/>
<rect x="121.842" y="370.728" width="18.4982" height="4.26882" rx="1" fill="white" style="mix-blend-mode:overlay"/>
<rect x="121.842" y="360.767" width="18.4982" height="4.26882" rx="1" transform="rotate(-180 121.842 360.767)" fill="white" style="mix-blend-mode:overlay"/>
<rect x="91" y="378" width="18.4982" height="4.26882" rx="1" fill="white" style="mix-blend-mode:overlay"/>
<rect x="107.613" y="367.882" width="4.26882" height="4.26882" rx="1" transform="rotate(-180 107.613 367.882)" fill="white" style="mix-blend-mode:overlay"/>
<rect x="131.803" y="384.957" width="14.2294" height="4.26882" rx="1" fill="white" style="mix-blend-mode:overlay"/>
<rect x="100.498" y="360.767" width="18.4982" height="4.26882" rx="1" transform="rotate(-180 100.498 360.767)" fill="white" style="mix-blend-mode:overlay"/>
<rect x="111.882" y="377.842" width="18.4982" height="4.26882" rx="1" fill="white" style="mix-blend-mode:overlay"/>
<rect x="100.498" y="367.882" width="18.4982" height="4.26882" rx="1" transform="rotate(-180 100.498 367.882)" fill="white" style="mix-blend-mode:overlay"/>
</g>
<g opacity="0.5">
<rect x="179.834" y="350.185" width="36.9964" height="4.26882" rx="1" fill="white" style="mix-blend-mode:overlay"/>
<rect x="179.834" y="338.801" width="17.0753" height="4.26882" rx="1" fill="white" style="mix-blend-mode:overlay"/>
<rect x="179.834" y="392.873" width="36.9964" height="4.26882" rx="1" fill="white" style="mix-blend-mode:overlay"/>
<rect x="179.834" y="385.758" width="29.8817" height="4.26882" rx="1" fill="white" style="mix-blend-mode:overlay"/>
<rect x="179.834" y="371.529" width="8.53764" height="4.26882" rx="1" fill="white" style="mix-blend-mode:overlay"/>
<rect x="191.217" y="371.529" width="25.6129" height="4.26882" rx="1" fill="white" style="mix-blend-mode:overlay"/>
<rect x="208.183" y="361.787" width="5.69176" height="4.26882" rx="1" transform="rotate(-180 208.183 361.787)" fill="white" style="mix-blend-mode:overlay"/>
<rect x="179.834" y="378.644" width="5.69176" height="4.26882" rx="1" fill="white" style="mix-blend-mode:overlay"/>
<rect x="212.561" y="385.758" width="14.2294" height="4.26882" rx="1" fill="white" style="mix-blend-mode:overlay"/>
<rect x="208.402" y="364.414" width="18.4982" height="4.26882" rx="1" fill="white" style="mix-blend-mode:overlay"/>
<rect x="188.371" y="378.644" width="18.4982" height="4.26882" rx="1" fill="white" style="mix-blend-mode:overlay"/>
<rect x="205.447" y="368.683" width="4.26882" height="4.26882" rx="1" transform="rotate(-180 205.447 368.683)" fill="white" style="mix-blend-mode:overlay"/>
<rect x="198.332" y="361.568" width="18.4982" height="4.26882" rx="1" transform="rotate(-180 198.332 361.568)" fill="white" style="mix-blend-mode:overlay"/>
<rect x="209.715" y="378.644" width="18.4982" height="4.26882" rx="1" fill="white" style="mix-blend-mode:overlay"/>
<rect x="198.332" y="368.683" width="18.4982" height="4.26882" rx="1" transform="rotate(-180 198.332 368.683)" fill="white" style="mix-blend-mode:overlay"/>
</g>
<circle cx="39.314" cy="228.359" r="3.44789" fill="white"/>
<circle cx="53.1055" cy="228.359" r="3.44789" fill="white"/>
<circle cx="66.897" cy="228.359" r="3.44789" fill="white"/>
<g filter="url(#filter0_d)">
<rect x="256" y="277" width="78.7419" height="65.973" rx="13.6607" fill="white"/>
<rect x="278.701" y="294.025" width="34.0506" height="12.769" rx="6.38448" fill="url(#paint8_linear)"/>
<rect x="312.751" y="326.657" width="34.0506" height="12.769" rx="6.38448" transform="rotate(-180 312.751 326.657)" fill="url(#paint9_linear)"/>
<g filter="url(#filter1_d)">
<circle cx="306.365" cy="300.41" r="4.25632" fill="white"/>
</g>
<g filter="url(#filter2_d)">
<circle cx="285.084" cy="320.273" r="4.25632" fill="white"/>
</g>
</g>
<g filter="url(#filter3_d)">
<rect width="77.4476" height="77.4476" transform="matrix(0.684334 -0.729169 0.684334 0.729169 101 192.472)" fill="#FFC670"/>
</g>
<path d="M147.48 199H148.8L141.072 182.2H139.848L132.12 199H133.44L135.576 194.272H145.32L147.48 199ZM136.056 193.24L140.448 183.544L144.864 193.24H136.056ZM159.153 182.2H153.129V199H154.353V193.504H159.153C163.377 193.504 165.921 191.392 165.921 187.864C165.921 184.312 163.377 182.2 159.153 182.2ZM159.153 192.4H154.353V183.304H159.153C162.753 183.304 164.673 184.96 164.673 187.864C164.673 190.744 162.753 192.4 159.153 192.4ZM171.33 199H172.554V182.2H171.33V199Z" fill="#1D183E"/>
</g>
<mask id="mask2" style="mask-type:alpha" maskUnits="userSpaceOnUse" x="961" y="63" width="365" height="334">
<rect x="961" y="63" width="365" height="334" fill="white"/>
</mask>
<g mask="url(#mask2)">
<rect x="1176" y="184" width="150" height="293" rx="14" fill="url(#paint10_linear)"/>
<path d="M1176 292C1176 284.268 1182.27 278 1190 278H1312C1319.73 278 1326 284.268 1326 292L1326 493C1326 500.732 1319.73 507 1312 507L1190 507C1182.27 507 1176 500.732 1176 493L1176 292Z" fill="url(#paint11_linear)"/>
<path d="M1201 308C1201 301.925 1205.92 297 1212 297H1216C1222.08 297 1227 301.925 1227 308V312C1227 318.075 1222.08 323 1216 323H1212C1205.92 323 1201 318.075 1201 312V308Z" fill="#243E81" fill-opacity="0.4"/>
<path d="M1236 305.5C1236 304.672 1236.67 304 1237.5 304H1299.5C1300.33 304 1301 304.672 1301 305.5C1301 306.328 1300.33 307 1299.5 307H1237.5C1236.67 307 1236 306.328 1236 305.5Z" fill="#243E81" fill-opacity="0.4"/>
<path d="M1236 314.5C1236 313.672 1236.67 313 1237.5 313H1277.5C1278.33 313 1279 313.672 1279 314.5C1279 315.328 1278.33 316 1277.5 316H1237.5C1236.67 316 1236 315.328 1236 314.5Z" fill="#243E81" fill-opacity="0.4"/>
<path d="M1201 354C1201 347.925 1205.92 343 1212 343H1216C1222.08 343 1227 347.925 1227 354V358C1227 364.075 1222.08 369 1216 369H1212C1205.92 369 1201 364.075 1201 358V354Z" fill="#243E81" fill-opacity="0.4"/>
<path d="M1236 351.5C1236 350.672 1236.67 350 1237.5 350H1299.5C1300.33 350 1301 350.672 1301 351.5C1301 352.328 1300.33 353 1299.5 353H1237.5C1236.67 353 1236 352.328 1236 351.5Z" fill="#243E81" fill-opacity="0.4"/>
<path d="M1236 360.5C1236 359.672 1236.67 359 1237.5 359H1277.5C1278.33 359 1279 359.672 1279 360.5C1279 361.328 1278.33 362 1277.5 362H1237.5C1236.67 362 1236 361.328 1236 360.5Z" fill="#243E81" fill-opacity="0.4"/>
<g filter="url(#filter4_d)">
<rect x="1233" y="361.353" width="124" height="58.3529" rx="7" transform="rotate(-180 1233 361.353)" fill="white"/>
<path d="M1166.94 314.11H1163.59V322.51H1165.01V319.978H1166.94C1169.05 319.978 1170.27 318.874 1170.27 316.978C1170.27 315.154 1169.05 314.11 1166.94 314.11ZM1166.88 318.706H1165.01V315.382H1166.88C1168.18 315.382 1168.91 315.91 1168.91 317.014C1168.91 318.154 1168.18 318.706 1166.88 318.706ZM1172.71 314.11V322.51H1174.13V314.11H1172.71ZM1177.38 314.11V322.51H1178.79V316.486L1183.27 322.51H1184.66V314.11H1183.27V320.146L1178.77 314.11H1177.38Z" fill="#4A59D9"/>
<rect x="1119.94" y="329.745" width="18.2353" height="18.2353" rx="2" fill="#B6E6FF"/>
<rect x="1147.9" y="329.745" width="18.2353" height="18.2353" rx="2" fill="#B6E6FF"/>
<rect x="1175.86" y="329.745" width="18.2353" height="18.2353" rx="2" fill="#B6E6FF"/>
<rect x="1203.82" y="329.745" width="18.2353" height="18.2353" rx="2" fill="#B6E6FF"/>
</g>
<path d="M1111 205.5V240C1111 247.18 1116.82 253 1124 253H1174" stroke="white" stroke-width="0.3"/>
<path d="M1112.07 220.149C1110.8 220.906 1109.22 220.906 1107.96 220.148L1062.8 193.105C1060.2 191.552 1060.2 187.792 1062.8 186.24L1107.96 159.228C1109.22 158.472 1110.8 158.471 1112.07 159.227L1157.26 186.24C1159.85 187.792 1159.86 191.552 1157.26 193.106L1112.07 220.149Z" fill="#13296F"/>
<path d="M1112.07 202.989C1110.8 203.745 1109.23 203.745 1107.96 202.989L1062.8 175.976C1060.2 174.424 1060.2 170.665 1062.8 169.111L1107.96 142.068C1109.22 141.311 1110.8 141.31 1112.07 142.068L1157.26 169.111C1159.86 170.664 1159.86 174.425 1157.26 175.976L1112.07 202.989Z" fill="#4A59D9"/>
<path d="M1112.07 188.149C1110.8 188.906 1109.22 188.906 1107.96 188.148L1061.36 160.247C1059.42 159.082 1059.42 156.262 1061.36 155.098L1104.88 129.069C1108.04 127.179 1111.98 127.179 1115.15 129.068L1158.69 155.098C1160.64 156.262 1160.64 159.082 1158.69 160.247L1112.07 188.149Z" fill="url(#paint12_linear)"/>
<g filter="url(#filter5_d)">
<path fill-rule="evenodd" clip-rule="evenodd" d="M1032.02 283L1077 309.131L1031.98 309.087H987L1031.98 283.044L1032.02 283ZM1031.93 335.218L987 309.131H1031.98H1077L1031.98 335.174L1031.93 335.218Z" fill="#191565"/>
<path d="M1058.17 287.627H1005.83C1000.14 287.627 995.515 292.254 995.515 297.938V314.066L1031.94 335.218L1068.49 314.066V297.982C1068.49 292.254 1063.86 287.627 1058.17 287.627Z" fill="white"/>
<path d="M1031.93 335.218L987.001 309.131V350.201H987.089L1031.93 376.288L1031.98 376.243V335.174L1031.93 335.218Z" fill="#243E81"/>
<path d="M1031.98 376.243L1076.96 350.201H1077V309.131L1031.98 335.174V376.243Z" fill="url(#paint13_linear)"/>
</g>
<path d="M1022.73 305.011L1023.27 303.875C1022.35 303.251 1021.02 302.835 1019.72 302.835C1017.4 302.835 1015.85 303.955 1015.85 305.715C1015.85 309.731 1022.15 308.147 1022.14 311.139C1022.14 312.227 1021.13 312.883 1019.51 312.883C1018.25 312.883 1016.83 312.307 1015.79 311.315L1015.21 312.419C1016.27 313.427 1017.87 314.131 1019.5 314.131C1021.9 314.131 1023.55 312.931 1023.55 311.075C1023.56 307.011 1017.26 308.531 1017.26 305.619C1017.26 304.659 1018.2 304.083 1019.64 304.083C1020.54 304.083 1021.72 304.355 1022.73 305.011ZM1031.98 302.883H1027.46V314.083H1031.94C1035.23 314.083 1037.74 311.667 1037.74 308.483C1037.74 305.299 1035.25 302.883 1031.98 302.883ZM1032 312.899H1028.74V304.067H1031.95C1034.46 304.067 1036.45 305.971 1036.45 308.499C1036.45 311.011 1034.5 312.899 1032 312.899ZM1050.51 314.083L1045.73 307.763L1050.18 302.883H1048.66L1042.64 309.395V302.883H1041.36V314.083H1042.64V311.155L1044.82 308.755L1048.94 314.083H1050.51Z" fill="#1C278B"/>
<path d="M1206.32 233.013C1206.32 231.767 1207.55 231.019 1209.42 231.019C1210.58 231.019 1212.12 231.372 1213.43 232.224L1214.13 230.749C1213.05 230.022 1211.56 229.503 1210.04 229.42L1210.02 226.928H1208.75V229.441C1206.18 229.669 1204.5 231.061 1204.5 233.138C1204.5 238.351 1212.68 236.295 1212.66 240.179C1212.66 241.591 1211.35 242.442 1209.25 242.442C1207.61 242.442 1205.76 241.695 1204.41 240.407L1203.66 241.84C1204.93 243.045 1206.8 243.917 1208.75 244.042V246.762H1210.02L1210.04 244.021C1212.7 243.772 1214.49 242.297 1214.49 240.095C1214.51 234.82 1206.32 236.793 1206.32 233.013Z" fill="white"/>
<path d="M1225.01 229.441V230.978H1228.44V244H1230.1V229.441H1225.01Z" fill="white"/>
<path d="M1242.07 235.651L1241.18 235.609L1246.27 230.562V229.462H1237.07L1237.09 230.999H1244.17L1239.33 235.775V236.793H1241.26C1243.84 236.793 1245.37 237.749 1245.37 239.597C1245.37 241.404 1243.86 242.629 1241.3 242.629C1239.79 242.629 1238.25 242.11 1237.11 241.259L1236.38 242.629C1237.67 243.481 1239.56 244.062 1241.39 244.062C1244.86 244.062 1246.99 242.214 1246.99 239.535C1246.99 237.188 1245.04 235.796 1242.07 235.651Z" fill="white"/>
<path d="M1251.22 241.736L1250.56 243.024C1251.74 243.668 1253.34 244.062 1254.67 244.062C1258.37 244.062 1260.69 241.03 1260.69 236.399C1260.69 231.912 1258.53 229.379 1254.98 229.379C1251.99 229.379 1250.04 231.206 1250.04 234.176C1250.04 237.001 1251.8 238.766 1254.69 238.766C1256.85 238.766 1258.39 237.769 1259.03 236.025C1259.28 240.054 1257.7 242.65 1254.57 242.65C1253.42 242.65 1252.18 242.318 1251.22 241.736ZM1255.11 230.853C1257.6 230.853 1258.68 232.66 1258.66 234.072C1258.68 235.817 1257.31 237.395 1254.96 237.395C1252.9 237.395 1251.6 236.17 1251.6 234.197C1251.6 232.099 1253.03 230.853 1255.11 230.853Z" fill="white"/>
<path d="M1264.25 242.089C1263.69 242.089 1263.28 242.525 1263.28 243.128C1263.28 243.481 1263.42 243.813 1263.73 243.979L1263.05 245.475H1263.96L1264.94 244C1265.13 243.73 1265.25 243.46 1265.25 243.128C1265.25 242.484 1264.79 242.089 1264.25 242.089Z" fill="white"/>
<path d="M1272.95 229.441L1267.49 238.808V240.137H1274.78V244H1276.33V240.137H1278.62V238.6H1276.33V234.716H1274.78V238.6H1269.25L1274.59 229.441H1272.95Z" fill="white"/>
<path d="M1283.38 235.173V230.978H1290.72V229.441H1281.83V236.876C1282.95 236.627 1284.78 236.482 1285.79 236.482C1288.1 236.482 1289.57 237.603 1289.57 239.348C1289.57 241.321 1288.1 242.546 1285.75 242.546C1284.36 242.546 1282.72 242.006 1281.45 241.113L1280.77 242.463C1282.22 243.419 1284.22 244.042 1285.92 244.042C1289.2 244.042 1291.32 242.152 1291.32 239.244C1291.32 236.752 1289.26 234.965 1286.04 234.965C1285.32 234.965 1284.22 235.028 1283.38 235.173Z" fill="white"/>
<path d="M1299.39 229.379C1296.54 229.379 1294.73 230.749 1294.73 232.972C1294.73 234.509 1295.65 235.63 1297.16 236.212C1295.23 236.772 1294.05 238.102 1294.05 239.95C1294.05 242.525 1296.11 244.062 1299.41 244.062C1302.71 244.062 1304.77 242.505 1304.77 239.929C1304.77 238.102 1303.6 236.772 1301.71 236.212C1303.17 235.651 1304.06 234.55 1304.06 233.034C1304.06 230.749 1302.27 229.379 1299.39 229.379ZM1299.41 230.645C1301.44 230.645 1302.63 231.559 1302.63 233.138C1302.63 234.695 1301.44 235.63 1299.41 235.63C1297.37 235.63 1296.17 234.695 1296.17 233.138C1296.17 231.559 1297.37 230.645 1299.41 230.645ZM1299.39 236.98C1301.78 236.98 1303.19 238.06 1303.19 239.805C1303.19 241.632 1301.78 242.712 1299.41 242.712C1297.02 242.712 1295.61 241.632 1295.61 239.784C1295.61 238.039 1297.02 236.98 1299.39 236.98Z" fill="white"/>
</g>
<defs>
<filter id="filter0_d" x="234" y="263" width="114.742" height="101.973" filterUnits="userSpaceOnUse" color-interpolation-filters="sRGB">
<feFlood flood-opacity="0" result="BackgroundImageFix"/>
<feColorMatrix in="SourceAlpha" type="matrix" values="0 0 0 0 0 0 0 0 0 0 0 0 0 0 0 0 0 0 127 0" result="hardAlpha"/>
<feOffset dx="-4" dy="4"/>
<feGaussianBlur stdDeviation="9"/>
<feColorMatrix type="matrix" values="0 0 0 0 0.193646 0 0 0 0 0.247197 0 0 0 0 0.704167 0 0 0 0.56 0"/>
<feBlend mode="normal" in2="BackgroundImageFix" result="effect1_dropShadow"/>
<feBlend mode="normal" in="SourceGraphic" in2="effect1_dropShadow" result="shape"/>
</filter>
<filter id="filter1_d" x="299.109" y="293.154" width="16.5126" height="16.5126" filterUnits="userSpaceOnUse" color-interpolation-filters="sRGB">
<feFlood flood-opacity="0" result="BackgroundImageFix"/>
<feColorMatrix in="SourceAlpha" type="matrix" values="0 0 0 0 0 0 0 0 0 0 0 0 0 0 0 0 0 0 127 0" result="hardAlpha"/>
<feOffset dx="1" dy="1"/>
<feGaussianBlur stdDeviation="2"/>
<feColorMatrix type="matrix" values="0 0 0 0 0.87451 0 0 0 0 0.262745 0 0 0 0 0.262745 0 0 0 0.37 0"/>
<feBlend mode="normal" in2="BackgroundImageFix" result="effect1_dropShadow"/>
<feBlend mode="normal" in="SourceGraphic" in2="effect1_dropShadow" result="shape"/>
</filter>
<filter id="filter2_d" x="277.828" y="313.016" width="16.5126" height="16.5126" filterUnits="userSpaceOnUse" color-interpolation-filters="sRGB">
<feFlood flood-opacity="0" result="BackgroundImageFix"/>
<feColorMatrix in="SourceAlpha" type="matrix" values="0 0 0 0 0 0 0 0 0 0 0 0 0 0 0 0 0 0 127 0" result="hardAlpha"/>
<feOffset dx="1" dy="1"/>
<feGaussianBlur stdDeviation="2"/>
<feColorMatrix type="matrix" values="0 0 0 0 0.165729 0 0 0 0 0.202906 0 0 0 0 0.5375 0 0 0 1 0"/>
<feBlend mode="normal" in2="BackgroundImageFix" result="effect1_dropShadow"/>
<feBlend mode="normal" in="SourceGraphic" in2="effect1_dropShadow" result="shape"/>
</filter>
<filter id="filter3_d" x="82" y="128" width="132" height="138.945" filterUnits="userSpaceOnUse" color-interpolation-filters="sRGB">
<feFlood flood-opacity="0" result="BackgroundImageFix"/>
<feColorMatrix in="SourceAlpha" type="matrix" values="0 0 0 0 0 0 0 0 0 0 0 0 0 0 0 0 0 0 127 0" result="hardAlpha"/>
<feOffset dx="-6" dy="5"/>
<feGaussianBlur stdDeviation="6.5"/>
<feColorMatrix type="matrix" values="0 0 0 0 0.0901961 0 0 0 0 0.188235 0 0 0 0 0.501961 0 0 0 0.41 0"/>
<feBlend mode="normal" in2="BackgroundImageFix" result="effect1_dropShadow"/>
<feBlend mode="normal" in="SourceGraphic" in2="effect1_dropShadow" result="shape"/>
</filter>
<filter id="filter4_d" x="1099" y="292" width="154" height="88.3529" filterUnits="userSpaceOnUse" color-interpolation-filters="sRGB">
<feFlood flood-opacity="0" result="BackgroundImageFix"/>
<feColorMatrix in="SourceAlpha" type="matrix" values="0 0 0 0 0 0 0 0 0 0 0 0 0 0 0 0 0 0 127 0" result="hardAlpha"/>
<feOffset dx="5" dy="4"/>
<feGaussianBlur stdDeviation="7.5"/>
<feColorMatrix type="matrix" values="0 0 0 0 0.307483 0 0 0 0 0.362205 0 0 0 0 0.829167 0 0 0 0.46 0"/>
<feBlend mode="normal" in2="BackgroundImageFix" result="effect1_dropShadow"/>
<feBlend mode="normal" in="SourceGraphic" in2="effect1_dropShadow" result="shape"/>
</filter>
<filter id="filter5_d" x="952" y="261" width="148" height="151.288" filterUnits="userSpaceOnUse" color-interpolation-filters="sRGB">
<feFlood flood-opacity="0" result="BackgroundImageFix"/>
<feColorMatrix in="SourceAlpha" type="matrix" values="0 0 0 0 0 0 0 0 0 0 0 0 0 0 0 0 0 0 127 0" result="hardAlpha"/>
<feOffset dx="-6" dy="7"/>
<feGaussianBlur stdDeviation="14.5"/>
<feColorMatrix type="matrix" values="0 0 0 0 0.198854 0 0 0 0 0.250342 0 0 0 0 0.691667 0 0 0 0.67 0"/>
<feBlend mode="normal" in2="BackgroundImageFix" result="effect1_dropShadow"/>
<feBlend mode="normal" in="SourceGraphic" in2="effect1_dropShadow" result="shape"/>
</filter>
<linearGradient id="paint0_linear" x1="982.393" y1="714.264" x2="587.28" y2="-19.6248" gradientUnits="userSpaceOnUse">
<stop stop-color="#FDBEB3"/>
<stop offset="1" stop-color="#4A59D9"/>
</linearGradient>
<linearGradient id="paint1_linear" x1="13.8612" y1="319.197" x2="194.898" y2="235.043" gradientUnits="userSpaceOnUse">
<stop stop-color="white"/>
<stop offset="1" stop-color="white" stop-opacity="0"/>
</linearGradient>
<linearGradient id="paint2_linear" x1="1270.58" y1="197.074" x2="1227.93" y2="315.144" gradientUnits="userSpaceOnUse">
<stop stop-color="white"/>
<stop offset="1" stop-color="white" stop-opacity="0"/>
</linearGradient>
<linearGradient id="paint3_linear" x1="764.3" y1="385.331" x2="639.685" y2="364.739" gradientUnits="userSpaceOnUse">
<stop stop-color="white"/>
<stop offset="1" stop-color="white" stop-opacity="0"/>
</linearGradient>
<linearGradient id="paint4_linear" x1="745.144" y1="61.5" x2="758.868" y2="308.5" gradientUnits="userSpaceOnUse">
<stop stop-color="white" stop-opacity="0"/>
<stop offset="1" stop-color="white"/>
</linearGradient>
<linearGradient id="paint5_linear" x1="195.203" y1="206" x2="195.203" y2="374" gradientUnits="userSpaceOnUse">
<stop stop-color="white"/>
<stop offset="1" stop-color="white" stop-opacity="0.28"/>
</linearGradient>
<linearGradient id="paint6_linear" x1="358.383" y1="267" x2="358.383" y2="368.956" gradientUnits="userSpaceOnUse">
<stop stop-color="#676AD3" stop-opacity="0"/>
<stop offset="1" stop-color="#4A59D9"/>
</linearGradient>
<linearGradient id="paint7_linear" x1="60.383" y1="140" x2="60.383" y2="215.956" gradientUnits="userSpaceOnUse">
<stop stop-color="#2836A7" stop-opacity="0"/>
<stop offset="1" stop-color="#2836A7"/>
</linearGradient>
<linearGradient id="paint8_linear" x1="277" y1="301" x2="319.5" y2="300" gradientUnits="userSpaceOnUse">
<stop stop-color="white"/>
<stop offset="1" stop-color="#FF0000"/>
</linearGradient>
<linearGradient id="paint9_linear" x1="322.631" y1="326.631" x2="349.816" y2="326.631" gradientUnits="userSpaceOnUse">
<stop stop-color="#4D5DD7"/>
<stop offset="1" stop-color="#2D2A7A" stop-opacity="0"/>
</linearGradient>
<linearGradient id="paint10_linear" x1="1256" y1="190" x2="1256" y2="407" gradientUnits="userSpaceOnUse">
<stop stop-color="#243E81"/>
<stop offset="1" stop-color="#243E81" stop-opacity="0"/>
</linearGradient>
<linearGradient id="paint11_linear" x1="1270" y1="313" x2="1270" y2="444" gradientUnits="userSpaceOnUse">
<stop stop-color="white"/>
<stop offset="1" stop-color="white" stop-opacity="0.28"/>
</linearGradient>
<linearGradient id="paint12_linear" x1="1110.03" y1="126" x2="1113.39" y2="194.793" gradientUnits="userSpaceOnUse">
<stop stop-color="#FF9D75"/>
<stop offset="1" stop-color="#FDBEB3" stop-opacity="0"/>
</linearGradient>
<linearGradient id="paint13_linear" x1="1054.49" y1="309.131" x2="1054.49" y2="376.243" gradientUnits="userSpaceOnUse">
<stop stop-color="#EFFAFF"/>
<stop offset="0.0001" stop-color="#96DBFF"/>
<stop offset="1" stop-color="#0066FF"/>
</linearGradient>
</defs>
</svg>
